# xmcd CD database file
#
# Track frame offsets:
#	150
#	21872
#	40595
#
# Disc length: 778 seconds
#
# Revision: 1
# Processed by: cddbd v1.5.1PL2 Copyright (c) Steve Scherf et al.
# Submitted via: CDex 1.51
#
DISCID=18030803
DTITLE=小谷美紗子 - Who
DYEAR=2006
DGENRE=Pop
TTITLE0=Who
TTITLE1=雪でもいい
TTITLE2=まだ赤い (DEMO.ver)
EXTD=YEAR: 2006
EXTT0=
EXTT1=
EXTT2=
PLAYORDER=
